<svg preserveAspectRatio="none" width="100%" height="100%" overflow="visible" style="display: block;" viewBox="0 0 173 31" fill="none" xmlns="http://www.w3.org/2000/svg">
<g id="Group 18@2x 1" clip-path="url(#clip0_0_205)">
<path id="Vector" fill-rule="evenodd" clip-rule="evenodd" d="M0.96875 30.0312H30.0312V0.96875H0.96875V30.0312ZM0 0H31V31H0V0ZM17.6513 6.80853L11.9671 24.2401H10.8302L4.76708 6.80853H5.52497L10.6407 21.3981L10.7955 20.0054C10.8186 19.7975 10.8627 19.5925 10.927 19.3934L14.9987 6.80853H17.6513ZM23.2723 18.177L25.3984 24.2401H26.1562L20.0931 6.80853H18.9563L13.272 24.2401H15.9246L19.627 12.7964C19.8835 12.0037 20.1682 10.68 20.2608 9.84622L20.2825 9.65061L23.0066 17.4191H21.0405L21.23 18.177H23.2723Z" fill="var(--fill-0, #22201D)"/>
<path id="Vector_2" d="M40.7533 6.21469L43.4896 21.6455L46.2258 6.21469H47.9791L44.2865 24.7853H42.6926L39 6.21469H40.7533ZM51.7367 6.21469V24.7853H50.0897V6.21469H51.7367ZM53.9722 6.21469H61.7293V7.71751H58.6743V24.7853H57.0273V7.71751H53.9722V6.21469ZM65.2116 6.21469H66.7524L70.4716 24.7853H68.7183L67.8948 20.089H64.0693L63.2458 24.7853H61.4925L65.2116 6.21469ZM67.6291 18.5862L65.982 9.24718L64.335 18.5862H67.6291ZM81.8423 14.9633C82.4445 15.2316 82.9138 15.6521 83.2503 16.2246C83.5868 16.7792 83.755 17.4411 83.755 18.2105V20.9746C83.755 22.1017 83.4097 23.0231 82.719 23.7387C82.0283 24.4364 81.125 24.7853 80.0093 24.7853H76.3698V6.21469H79.6108C80.7266 6.21469 81.6298 6.57251 82.3205 7.28814C83.0112 7.98588 83.3566 8.8983 83.3566 10.0254V12.0918C83.3566 13.4336 82.8518 14.3908 81.8423 14.9633ZM78.0169 7.71751V14.3997H79.5311C80.1864 14.3997 80.7089 14.194 81.0985 13.7825C81.5058 13.371 81.7095 12.7806 81.7095 12.0113V10.1059C81.7095 9.33663 81.5058 8.74623 81.0985 8.33475C80.7089 7.92326 80.1864 7.71751 79.5311 7.71751H78.0169ZM82.108 18.291C82.108 17.5217 81.9043 16.9313 81.497 16.5198C81.1073 16.1083 80.5849 15.9025 79.9296 15.9025H78.0169V23.2825H79.9296C80.5849 23.2825 81.1073 23.0767 81.497 22.6653C81.9043 22.2538 82.108 21.6634 82.108 20.8941V18.291ZM92.7505 24.7853L89.8545 17.298H88.4199V24.7853H86.7729V6.21469H90.1201C91.2359 6.21469 92.1394 6.57251 92.8301 7.28814C93.5209 7.98588 93.8662 8.8983 93.8662 10.0254V13.4873C93.8662 14.3639 93.6448 15.1243 93.2021 15.7684C92.777 16.3945 92.1926 16.8329 91.4484 17.0833L94.61 24.7853H92.7505ZM88.4199 15.7952H90.0404C90.6957 15.7952 91.2182 15.5895 91.6078 15.178C92.0155 14.7665 92.2191 14.1761 92.2191 13.4068V10.1059C92.2191 9.33663 92.0155 8.74623 91.6078 8.33475C91.2182 7.92326 90.6957 7.71751 90.0404 7.71751H88.4199V15.7952ZM99.249 6.21469H100.79L104.509 24.7853H102.756L101.932 20.089H98.1067L97.2832 24.7853H95.5299L99.249 6.21469ZM101.667 18.5862L100.019 9.24718L98.3724 18.5862H101.667ZM106.025 6.21469L108.762 21.6455L111.498 6.21469H113.251L109.559 24.7853H107.965L104.272 6.21469H106.025ZM116.76 6.21469H118.301L122.02 24.7853H120.267L119.443 20.089H115.618L114.794 24.7853H113.041L116.76 6.21469ZM119.178 18.5862L117.531 9.24718L115.883 18.5862H119.178ZM129.885 6.21469H131.532V14.346H135.783V6.21469H137.43V24.7853H135.783V15.8489H131.532V24.7853H129.885V6.21469ZM140.693 10.5085C140.693 9.13089 141.065 8.03955 141.809 7.23446C142.57 6.41149 143.536 6 144.704 6C145.873 6 146.83 6.41149 147.573 7.23446C148.335 8.03955 148.716 9.13089 148.716 10.5085V20.4915C148.716 21.8691 148.335 22.9694 147.573 23.7924C146.83 24.5975 145.873 25 144.704 25C143.536 25 142.57 24.5975 141.809 23.7924C141.065 22.9694 140.693 21.8691 140.693 20.4915V10.5085ZM142.34 20.411C142.34 21.395 142.561 22.1554 143.004 22.6921C143.447 23.2288 144.014 23.4972 144.704 23.4972C145.395 23.4972 145.962 23.2288 146.405 22.6921C146.847 22.1554 147.069 21.395 147.069 20.411V10.589C147.069 9.60499 146.847 8.84463 146.405 8.30791C145.962 7.77119 145.395 7.50282 144.704 7.50282C144.014 7.50282 143.447 7.77119 143.004 8.30791C142.561 8.84463 142.34 9.60499 142.34 10.589V20.411ZM162.72 6.21469V24.7853H161.073V11.233L157.567 21.4576H157.141L153.635 11.233V24.7853H151.988V6.21469H153.475L157.354 17.8079L161.233 6.21469H162.72ZM166.438 6.21469H172.867V7.71751H168.085V14.346H171.805V15.8489H168.085V23.2825H173V24.7853H166.438V6.21469Z" fill="var(--fill-0, #22201D)"/>
</g>
<defs>
<clipPath id="clip0_0_205">
<rect width="173" height="31" fill="white"/>
</clipPath>
</defs>
</svg>
