<svg preserveAspectRatio="none" width="100%" height="100%" overflow="visible" style="display: block;" viewBox="0 0 23.4726 20.8338" fill="none" xmlns="http://www.w3.org/2000/svg">
<path id="Vector" d="M11.8131 20.7978C11.7732 20.8458 11.6995 20.8458 11.6595 20.7978L0.0231673 6.82899C-0.00225899 6.79847 -0.00720686 6.75579 0.0105617 6.72026L3.34367 0.0552717C3.36061 0.021397 3.39524 0 3.43311 0H20.0395C20.0774 0 20.112 0.0213973 20.129 0.055272L23.4621 6.72026C23.4798 6.75579 23.4749 6.79847 23.4495 6.82899L11.8131 20.7978ZM7.82992 6.10528C7.79668 6.17177 7.84503 6.25 7.91937 6.25H15.5533C15.6276 6.25 15.6759 6.17177 15.6427 6.10528L13.2427 1.30528C13.2258 1.2714 13.1911 1.25 13.1533 1.25H10.3194C10.2815 1.25 10.2469 1.2714 10.2299 1.30528L7.82992 6.10528ZM10.9344 17.9869C10.9942 18.0589 11.1113 18.0167 11.1113 17.923V7.6C11.1113 7.54477 11.0665 7.5 11.0113 7.5H2.43933C2.35463 7.5 2.30829 7.59872 2.3624 7.66388L10.9344 17.9869ZM12.3613 17.923C12.3613 18.0167 12.4784 18.0589 12.5382 17.9869L21.1102 7.66388C21.1643 7.59872 21.118 7.5 21.0333 7.5H12.4613C12.4061 7.5 12.3613 7.54477 12.3613 7.6V17.923ZM17.0737 6.19472C17.0906 6.2286 17.1252 6.25 17.1631 6.25H21.647C21.7213 6.25 21.7697 6.17177 21.7365 6.10528L19.3365 1.30528C19.3195 1.2714 19.2849 1.25 19.247 1.25H14.7631C14.6888 1.25 14.6404 1.32823 14.6737 1.39472L17.0737 6.19472ZM1.73617 6.10528C1.70293 6.17177 1.75128 6.25 1.82562 6.25H6.30951C6.34739 6.25 6.38201 6.2286 6.39895 6.19472L8.79895 1.39472C8.8322 1.32823 8.78385 1.25 8.70951 1.25H4.22562C4.18774 1.25 4.15311 1.2714 4.13617 1.30528L1.73617 6.10528Z" fill="var(--fill-0, #600D11)"/>
</svg>
