<svg preserveAspectRatio="none" width="100%" height="100%" overflow="visible" style="display: block;" viewBox="0 0 315 58" fill="none" xmlns="http://www.w3.org/2000/svg">
<g id="Group 18@2x 1" clip-path="url(#clip0_0_3203)">
<path id="Vector" fill-rule="evenodd" clip-rule="evenodd" d="M1.8125 56.1875H56.1875V1.8125H1.8125V56.1875ZM0 0H58V58H0V0ZM33.0251 12.7385L22.39 45.3525H20.263L8.91905 12.7385H10.3371L19.9085 40.0351L20.1981 37.4294C20.2413 37.0405 20.3238 36.6569 20.4441 36.2845L28.062 12.7385H33.0251ZM43.5418 34.0086L47.5195 45.3525H48.9375L37.5936 12.7385H35.4666L24.8315 45.3525H29.7945L36.7215 23.9417C37.2013 22.4585 37.7341 19.982 37.9074 18.422L37.948 18.056L43.0446 32.5905H39.3661L39.7206 34.0086H43.5418Z" fill="var(--fill-0, #BDA06A)"/>
<path id="Vector_2" d="M69.2976 11.4068L74.4439 40.6441L79.5902 11.4068H82.8878L75.9428 46.5932H72.945L66 11.4068H69.2976ZM89.955 11.4068V46.5932H86.8572V11.4068H89.955ZM94.1594 11.4068H108.749V14.2542H103.003V46.5932H99.9053V14.2542H94.1594V11.4068ZM115.298 11.4068H118.196L125.191 46.5932H121.894L120.345 37.6949H113.15L111.601 46.5932H108.303L115.298 11.4068ZM119.845 34.8475L116.747 17.1525L113.649 34.8475H119.845ZM146.577 27.9831C147.709 28.4915 148.592 29.2881 149.225 30.3729C149.858 31.4237 150.174 32.678 150.174 34.1356V39.3729C150.174 41.5085 149.525 43.2542 148.226 44.6102C146.927 45.9322 145.228 46.5932 143.129 46.5932H136.284V11.4068H142.38C144.478 11.4068 146.177 12.0847 147.476 13.4407C148.775 14.7627 149.425 16.4915 149.425 18.6271V22.5424C149.425 25.0847 148.476 26.8983 146.577 27.9831ZM139.382 14.2542V26.9153H142.23C143.462 26.9153 144.445 26.5254 145.178 25.7458C145.944 24.9661 146.327 23.8475 146.327 22.3898V18.7797C146.327 17.322 145.944 16.2034 145.178 15.4237C144.445 14.6441 143.462 14.2542 142.23 14.2542H139.382ZM147.077 34.2881C147.077 32.8305 146.693 31.7119 145.927 30.9322C145.195 30.1525 144.212 29.7627 142.98 29.7627H139.382V43.7458H142.98C144.212 43.7458 145.195 43.3559 145.927 42.5763C146.693 41.7966 147.077 40.678 147.077 39.2203V34.2881ZM167.093 46.5932L161.646 32.4068H158.948V46.5932H155.85V11.4068H162.146C164.244 11.4068 165.944 12.0847 167.243 13.4407C168.542 14.7627 169.191 16.4915 169.191 18.6271V25.1864C169.191 26.8475 168.775 28.2881 167.942 29.5085C167.143 30.6949 166.043 31.5254 164.644 32L170.59 46.5932H167.093ZM158.948 29.5593H161.996C163.228 29.5593 164.211 29.1695 164.944 28.3898C165.71 27.6102 166.093 26.4915 166.093 25.0339V18.7797C166.093 17.322 165.71 16.2034 164.944 15.4237C164.211 14.6441 163.228 14.2542 161.996 14.2542H158.948V29.5593ZM179.315 11.4068H182.213L189.208 46.5932H185.91L184.361 37.6949H177.167L175.618 46.5932H172.32L179.315 11.4068ZM183.862 34.8475L180.764 17.1525L177.666 34.8475H183.862ZM192.06 11.4068L197.206 40.6441L202.353 11.4068H205.65L198.705 46.5932H195.707L188.762 11.4068H192.06ZM212.25 11.4068H215.147L222.142 46.5932H218.845L217.296 37.6949H210.101L208.552 46.5932H205.255L212.25 11.4068ZM216.796 34.8475L213.699 17.1525L210.601 34.8475H216.796ZM233.911 11.4068H237.008V26.8136H245.003V11.4068H248.1V46.5932H245.003V29.661H237.008V46.5932H233.911V11.4068ZM254.238 19.5424C254.238 16.9322 254.937 14.8644 256.336 13.339C257.769 11.7797 259.584 11 261.782 11C263.981 11 265.779 11.7797 267.178 13.339C268.611 14.8644 269.327 16.9322 269.327 19.5424V38.4576C269.327 41.0678 268.611 43.1525 267.178 44.7119C265.779 46.2373 263.981 47 261.782 47C259.584 47 257.769 46.2373 256.336 44.7119C254.937 43.1525 254.238 41.0678 254.238 38.4576V19.5424ZM257.335 38.3051C257.335 40.1695 257.752 41.6102 258.585 42.6271C259.417 43.6441 260.483 44.1525 261.782 44.1525C263.081 44.1525 264.147 43.6441 264.98 42.6271C265.813 41.6102 266.229 40.1695 266.229 38.3051V19.6949C266.229 17.8305 265.813 16.3898 264.98 15.3729C264.147 14.3559 263.081 13.8475 261.782 13.8475C260.483 13.8475 259.417 14.3559 258.585 15.3729C257.752 16.3898 257.335 17.8305 257.335 19.6949V38.3051ZM295.666 11.4068V46.5932H292.568V20.9153L285.973 40.2881H285.174L278.578 20.9153V46.5932H275.481V11.4068H278.279L285.573 33.3729L292.868 11.4068H295.666ZM302.659 11.4068H314.75V14.2542H305.757V26.8136H312.752V29.661H305.757V43.7458H315V46.5932H302.659V11.4068Z" fill="var(--fill-0, #BDA06A)"/>
</g>
<defs>
<clipPath id="clip0_0_3203">
<rect width="315" height="58" fill="white"/>
</clipPath>
</defs>
</svg>
