<svg preserveAspectRatio="none" width="100%" height="100%" overflow="visible" style="display: block;" viewBox="0 0 18.5005 18.5012" fill="none" xmlns="http://www.w3.org/2000/svg">
<path id="Vector" d="M17.4542 14.2138C16.7862 13.5407 15.1682 12.5584 14.3832 12.1626C13.361 11.6476 13.2768 11.6056 12.4733 12.2025C11.9374 12.6009 11.5811 12.9568 10.9538 12.823C10.3266 12.6893 8.96357 11.935 7.77009 10.7453C6.57661 9.55558 5.77858 8.15303 5.64438 7.52789C5.51018 6.90276 5.87197 6.55064 6.26657 6.01343C6.82271 5.2562 6.78064 5.13 6.30527 4.10774C5.93465 3.31264 4.92375 1.70984 4.24813 1.04516C3.5254 0.331262 3.5254 0.457467 3.0597 0.650981C2.68055 0.810467 2.31682 1.00437 1.97307 1.23026C1.29998 1.67745 0.926415 2.04891 0.66517 2.60716C0.403926 3.16541 0.286556 4.47415 1.63569 6.92505C2.98482 9.37595 3.93136 10.6292 5.89048 12.5828C7.8496 14.5365 9.35607 15.5869 11.5583 16.822C14.2827 18.3479 15.3277 18.0504 15.8876 17.7896C16.4475 17.5288 16.8207 17.1586 17.2687 16.4855C17.4952 16.1423 17.6895 15.779 17.8492 15.4001C18.0432 14.9361 18.1694 14.9361 17.4542 14.2138Z" stroke="var(--stroke-0, #8C8074)" stroke-miterlimit="10"/>
</svg>
