<svg preserveAspectRatio="none" width="100%" height="100%" overflow="visible" style="display: block;" viewBox="0 0 17.2234 14.4" fill="none" xmlns="http://www.w3.org/2000/svg">
<path id="Telegram" d="M15.3189 0.600387C15.5361 0.597632 15.8655 0.637891 16.1578 0.870895H16.1588C16.4382 1.09473 16.5491 1.38733 16.5924 1.59453C16.6354 1.8004 16.6222 1.96746 16.6178 2.01347L16.6148 2.04961L16.607 2.08379L14.3199 12.6228L14.318 12.6297C14.2372 12.9817 14.0897 13.2799 13.8551 13.493C13.6134 13.7123 13.3346 13.7918 13.0904 13.7996C12.6492 13.8137 12.2852 13.5978 12.2291 13.5643L12.2184 13.5584L12.2086 13.5516L12.1979 13.5447L12.1891 13.5389L12.1813 13.534L9.13535 11.3904L7.48496 12.8211L7.47813 12.8269C7.34805 12.9361 7.18742 13.0002 7.02109 13.0125C6.85471 13.0247 6.68665 12.9842 6.54258 12.8963L6.52207 12.8846L6.50254 12.8699C6.40246 12.7971 6.31906 12.7017 6.26133 12.5896C6.20353 12.4774 6.1733 12.3517 6.17344 12.2244V12.199L6.17539 12.1736L6.43809 9.14433L6.46543 8.99589C6.50698 8.85212 6.58939 8.72354 6.70176 8.62578H6.70274C6.95572 8.40627 8.06077 7.44322 9.27402 6.38359L5.43125 8.70781H5.43027C5.33482 8.76535 5.22822 8.80231 5.11875 8.81523C5.0094 8.82809 4.89796 8.81715 4.79258 8.78398V8.783L1.59727 7.78398L1.58555 7.78007L1.57481 7.77617L1.56309 7.77226L1.55332 7.76836C1.24884 7.65357 0.971443 7.50115 0.792579 7.27129C0.575945 6.99278 0.554092 6.66743 0.665626 6.39433C0.756816 6.17107 0.920178 6.01917 1.01816 5.93925C1.12682 5.85064 1.22964 5.79174 1.27402 5.76738C1.3068 5.74936 1.3407 5.73354 1.37559 5.7205L14.8004 0.687301V0.689254C14.8268 0.678896 14.8531 0.668324 14.8805 0.660934L14.899 0.656051L14.9166 0.652145C14.9164 0.651942 15.1052 0.603103 15.3189 0.600387Z" stroke="var(--stroke-0, #8C8074)" stroke-width="1.2"/>
</svg>
