<svg preserveAspectRatio="none" width="100%" height="100%" overflow="visible" style="display: block;" viewBox="0 0 17.8667 11.2002" fill="none" xmlns="http://www.w3.org/2000/svg">
<path id="Vector" d="M10.6 4.55766V1.47766C10.6 0.783489 10.4741 0.644323 9.78331 0.644323L7.82498 0.600156C7.21498 0.600156 6.90998 0.600156 6.78665 0.797656C6.66331 0.995156 6.79998 1.26599 7.07248 1.80599C7.22415 2.10599 7.30581 2.32349 7.30581 2.66016V4.87682C7.30581 5.57682 7.30581 5.92766 7.03915 6.03182C6.77248 6.13516 6.55165 5.90016 6.10831 5.43016C5.02498 4.27682 4.45998 2.83682 4.08915 1.26682C4.01248 0.941823 3.97415 0.779323 3.85915 0.689323C3.74415 0.599323 3.57998 0.600156 3.25331 0.600156H1.41998C1.01831 0.600156 0.817481 0.600156 0.691647 0.741823C0.566647 0.884323 0.590814 1.06599 0.639147 1.42849C1.07915 4.70099 3.95665 10.0668 9.27248 10.5785C10.2141 10.6685 10.6 10.4143 10.6 9.38266C10.6 8.79766 10.5875 7.85266 11.3233 7.72849C11.7091 7.66349 11.9683 7.80099 12.3991 8.16182C13.1458 8.78849 13.5375 9.55349 13.81 10.1343C13.9908 10.5193 14.125 10.6002 14.55 10.6002H16.2783C17.1516 10.6002 17.3891 10.3868 17 9.56682C16.5602 8.6472 15.9375 7.82688 15.17 7.15599C14.64 6.70016 14.3758 6.47266 14.3616 6.30432C14.3458 6.13682 14.54 5.89932 14.9283 5.42432C15.6783 4.50599 16.7 3.06516 17.1766 1.53599C17.4133 0.777656 17.1908 0.600156 16.4233 0.600156H14.8708C14.1183 0.600156 14.1191 0.574323 13.9416 1.42766C13.6533 2.81182 12.71 4.14266 11.8233 5.04849C11.4025 5.47849 11.1483 5.73766 10.8858 5.63182C10.6233 5.52599 10.6 5.20432 10.6 4.55766Z" stroke="var(--stroke-0, #8C8074)" stroke-width="1.2" stroke-linecap="round" stroke-linejoin="round"/>
</svg>
