<svg preserveAspectRatio="none" width="100%" height="100%" overflow="visible" style="display: block;" viewBox="0 0 13.6923 17.5" fill="none" xmlns="http://www.w3.org/2000/svg">
<g>
<path d="M12.2729 17H1.41987C1.29306 17.0004 1.16753 16.9745 1.05124 16.9239C0.934945 16.8733 0.830406 16.7992 0.74423 16.7061C0.658054 16.6131 0.592114 16.5032 0.550578 16.3834C0.509042 16.2636 0.492812 16.1364 0.502914 16.01L1.28215 5.92652C1.30077 5.69636 1.40553 5.48169 1.57552 5.32541C1.74551 5.16913 1.9682 5.08273 2.19911 5.08348H11.4937C11.7246 5.08263 11.9474 5.16899 12.1174 5.32529C12.2874 5.4816 12.3921 5.69632 12.4106 5.92652L13.1894 16.01C13.1995 16.1364 13.1833 16.2635 13.1418 16.3833C13.1003 16.5031 13.0344 16.6129 12.9483 16.706C12.8621 16.799 12.7577 16.8732 12.6414 16.9238C12.5252 16.9744 12.3997 17.0003 12.2729 17Z" stroke="var(--stroke-0, #600D11)" stroke-linecap="round" stroke-linejoin="round"/>
<path d="M4.09639 7.83348V3.25C4.09639 2.52065 4.38613 1.82118 4.90185 1.30546C5.41758 0.789731 6.11705 0.5 6.84639 0.5C7.57574 0.5 8.27521 0.789731 8.79094 1.30546C9.30666 1.82118 9.59639 2.52065 9.59639 3.25V7.83348" stroke="var(--stroke-0, #600D11)" stroke-linecap="round" stroke-linejoin="round"/>
</g>
</svg>
