<svg preserveAspectRatio="none" width="100%" height="100%" overflow="visible" style="display: block;" viewBox="0 0 20 18" fill="none" xmlns="http://www.w3.org/2000/svg">
<path d="M10 18L9.15778 17.2296C7.34445 15.553 5.84445 14.1178 4.65778 12.9241C3.47185 11.7297 2.53556 10.6762 1.84889 9.76368C1.16223 8.85116 0.682225 8.02637 0.408892 7.2893C0.135559 6.55224 -0.000737738 5.80955 3.003e-06 5.06123C3.003e-06 3.63059 0.480003 2.42939 1.44 1.45764C2.4 0.485878 3.58667 0 5 0C5.97778 0 6.89445 0.253061 7.75 0.759185C8.60556 1.26531 9.35556 2.00162 10 2.96813C10.6444 2.00162 11.3944 1.26531 12.25 0.759185C13.1056 0.253061 14.0222 0 15 0C16.4133 0 17.6 0.485878 18.56 1.45764C19.52 2.42939 20 3.63059 20 5.06123C20 5.80805 19.8637 6.55036 19.5911 7.28818C19.3178 8.02749 18.8378 8.85304 18.1511 9.76481C17.4644 10.6766 16.5315 11.7297 15.3522 12.9241C14.173 14.1178 12.6693 15.553 10.8411 17.2296L10 18Z" fill="var(--fill-0, #FEFAF4)"/>
</svg>
