<svg preserveAspectRatio="none" width="100%" height="100%" overflow="visible" style="display: block;" viewBox="0 0 20 16" fill="none" xmlns="http://www.w3.org/2000/svg">
<path id="Vector" d="M19.8979 8.77445L18.3855 1.64229C18.3859 1.60977 18.3825 1.57671 18.3744 1.54365C18.2549 1.04787 18.077 0.684468 17.8305 0.432749C17.5493 0.145549 17.1773 0 16.7245 0H4.31712C3.71438 0 2.90685 0.259246 2.43932 1.47484C2.43342 1.4872 2.42808 1.49997 2.42342 1.51328L0.159726 7.86715C0.141507 7.91836 0.13452 7.97064 0.13726 8.0217C0.0493149 8.20381 0 8.40715 0 8.62177V9.24173C0 9.61817 0.150411 9.96921 0.423562 10.2302C0.480959 10.285 0.542466 10.3348 0.607397 10.3788C0.233014 10.735 0 11.2333 0 11.7842V14.042C0 15.1216 0.895342 16 1.99575 16H17.726C18.9799 16 20 14.9992 20 13.7691V9.44695C20 9.22211 19.9658 9.00493 19.9025 8.80011C19.9012 8.79138 19.8997 8.78291 19.8979 8.77445ZM4.31712 0.806364H16.7245C17.0201 0.806364 17.324 0.868185 17.5301 1.56314C17.5314 1.57174 17.5327 1.58034 17.5347 1.58894L18.7822 7.4715C18.4664 7.30834 18.1071 7.21574 17.726 7.21574H1.43301C1.37397 7.21574 1.31589 7.21937 1.25877 7.22623L3.17178 1.85638C3.17438 1.85007 3.17712 1.84388 3.17945 1.8373C3.54521 0.806364 4.12616 0.806364 4.31712 0.806364ZM4.35438 11.1169L2.73863 8.02211H13.9374L4.35438 11.1169ZM0.821918 8.62164C0.821918 8.29103 1.09603 8.02211 1.43301 8.02211H1.81507L2.75685 9.82608H1.99562C1.91726 9.82608 1.83986 9.83051 1.7637 9.83925C1.75164 9.83764 1.73932 9.83643 1.72685 9.83589L1.4526 9.82285C1.44603 9.82258 1.43932 9.82231 1.43274 9.82231C1.09014 9.82231 0.821644 9.56724 0.821644 9.2416V8.62164H0.821918ZM19.1781 13.7689C19.1781 14.5545 18.5267 15.1935 17.726 15.1935H1.99575C1.34849 15.1935 0.821918 14.6769 0.821918 14.0419V11.7841C0.821918 11.1491 1.34849 10.6324 1.99575 10.6324H3.17795L3.78315 11.7916C3.85507 11.9293 3.99822 12.0111 4.1489 12.0111C4.19164 12.0111 4.23493 12.0045 4.2774 11.9908L8.55425 10.6096C8.59699 10.6244 8.64288 10.6324 8.69082 10.6324H15.9064C16.2434 10.6324 16.5175 10.9014 16.5175 11.232V11.9836C16.5175 12.3142 16.2434 12.5832 15.9064 12.5832H3.07164C2.84466 12.5832 2.66069 12.7637 2.66069 12.9864C2.66069 13.209 2.84466 13.3895 3.07164 13.3895H15.9064C16.6966 13.3895 17.3395 12.7588 17.3395 11.9836V11.232C17.3395 10.4568 16.6966 9.82608 15.9064 9.82608H10.9804L16.5455 8.02883C16.5519 8.02681 16.5582 8.02453 16.5645 8.02211H17.7262C18.5268 8.02211 19.1782 8.66115 19.1782 9.44668V13.7689H19.1781Z" fill="var(--fill-0, #600D11)"/>
</svg>
