<svg preserveAspectRatio="none" width="100%" height="100%" overflow="visible" style="display: block;" viewBox="0 0 24 24" fill="none" xmlns="http://www.w3.org/2000/svg">
<g id="Group">
  <g transform="translate(3 0)">
    <path d="M16.5 15H15.5C14.673 15 14 14.327 14 13.5V7.5C14 7.224 14.224 7 14.5 7C14.776 7 15 7.224 15 7.5V13.5C15 13.776 15.224 14 15.5 14H16.5C16.776 14 17 13.776 17 13.5V4.5C17 2.57 15.43 1 13.5 1H4.5C2.57 1 1 2.57 1 4.5V13.5C1 13.776 1.224 14 1.5 14H2.5C2.776 14 3 13.776 3 13.5V7.5C3 7.224 3.224 7 3.5 7C3.776 7 4 7.224 4 7.5V13.5C4 14.327 3.327 15 2.5 15H1.5C0.673 15 0 14.327 0 13.5V4.5C0 2.019 2.019 0 4.5 0H13.5C15.981 0 18 2.019 18 4.5V13.5C18 14.327 17.327 15 16.5 15Z" fill="var(--fill-0, #494846)"/>
  </g>
  <g transform="translate(6 12)">
    <path d="M11.5 1H0.5C0.224 1 0 0.776 0 0.5C0 0.224 0.224 0 0.5 0H11.5C11.776 0 12 0.224 12 0.5C12 0.776 11.776 1 11.5 1Z" fill="var(--fill-0, #494846)"/>
  </g>
  <g transform="translate(10 0)">
    <path d="M0.5 24.0004C0.224 24.0004 0 23.7764 0 23.5004V10.5374C0 9.77439 0.196 9.01839 0.566 8.35139L5.063 0.257389C5.197 0.0163893 5.501 -0.0716107 5.743 0.0633893C5.985 0.197389 6.072 0.501389 5.937 0.743389L1.44 8.83639C1.152 9.35539 1 9.94339 1 10.5374V23.5004C1 23.7764 0.776 24.0004 0.5 24.0004Z" fill="var(--fill-0, #494846)"/>
  </g>
  <g transform="translate(8 0)">
    <path d="M3.75022 7.74979C3.56422 7.74979 3.38522 7.64579 3.29922 7.46679L0.0492228 0.716787C-0.0697772 0.467787 0.034223 0.168787 0.283223 0.0487873C0.533223 -0.0692127 0.830223 0.0337873 0.950223 0.282787L4.20022 7.03279C4.32022 7.28179 4.21522 7.57979 3.96622 7.69979C3.89722 7.73379 3.82322 7.74979 3.75022 7.74979Z" fill="var(--fill-0, #494846)"/>
  </g>
  <g transform="translate(5 13)">
    <path d="M12 11.0006H2C0.897 11.0006 0 10.1036 0 9.00061C0 8.91861 0.00499987 8.83961 0.0149999 8.75961L1.004 0.441609C1.037 0.167609 1.28 -0.0273903 1.56 0.0036097C1.834 0.0366097 2.03 0.284609 1.998 0.559609L1.007 8.88061C1.002 8.92161 1 8.96061 1 9.00061C1 9.55161 1.449 10.0006 2 10.0006H12C12.551 10.0006 13 9.55161 13 9.00061C13 8.96061 12.998 8.92161 12.993 8.88261L12.003 0.559609C11.97 0.285609 12.167 0.0366097 12.441 0.0036097C12.713 -0.0293903 12.964 0.167609 12.997 0.441609L13.986 8.76261C13.995 8.83961 14 8.91861 14 9.00061C14 10.1036 13.103 11.0006 12 11.0006Z" fill="var(--fill-0, #494846)"/>
  </g>
</g>
</svg>
