<svg preserveAspectRatio="none" width="100%" height="100%" overflow="visible" style="display: block;" viewBox="0 0 24 19.0256" fill="none" xmlns="http://www.w3.org/2000/svg">
<g id="Group">
<path id="Vector" d="M23.011 7.64807C23.011 7.64807 19.6681 6.00222 19.6002 5.97319C20.1063 5.58766 20.3937 4.69007 20.3715 4.08791C20.3382 3.10243 19.6754 2.28453 18.7893 1.92832C17.7747 1.43453 16.7601 0.940733 15.7454 0.446938C14.9887 0.00806667 14.0999 -0.113369 13.2505 0.108272C10.2894 0.63822 7.32831 1.16817 4.36718 1.69817C1.10811 2.13355 -0.901636 6.05745 1.44467 8.69745L0.670005 9.52002C-0.292611 10.5422 -0.206764 12.2043 0.855338 13.122L6.99395 18.426C7.59831 18.9482 8.52893 19.1565 9.29811 18.9423L20.4755 15.8288C21.8153 15.4556 22.6369 13.9787 22.129 12.6559L21.8473 11.704C23.9086 11.4298 24.8625 8.89678 23.011 7.64807ZM21.1804 12.9596C21.4318 13.8164 21.0568 14.6314 20.2088 14.8676L9.03139 17.9811C8.54477 18.1167 8.02621 18.0005 7.64426 17.6705L1.50565 12.3664C0.868056 11.8156 0.816364 10.8184 1.39431 10.2048L2.1638 9.38776C3.80185 10.8623 5.43995 12.3368 7.078 13.8113C8.00683 14.8067 9.27836 15.2238 10.5843 14.7253C14.0179 13.8042 17.4515 12.8832 20.8852 11.9621L21.1804 12.9596ZM22.2865 10.5529C18.2992 11.6113 14.3119 12.6698 10.3246 13.7283C9.38411 14.1342 8.41165 13.8081 7.77221 13.0391C6.09795 11.5241 4.42375 10.0091 2.74949 8.49412C0.38821 6.60996 1.72016 3.11135 4.55672 2.76012C7.51759 2.22894 10.4785 1.69781 13.4394 1.16663C14.064 0.976169 14.7261 1.07109 15.2771 1.4133C16.292 1.90668 17.3068 2.40007 18.3216 2.89345C18.8462 3.08243 19.2803 3.52304 19.3023 4.12694C19.3044 4.72222 19.0365 5.14396 18.4987 5.39222C15.9898 6.05258 13.4071 6.51355 10.8719 7.06417C9.47724 7.25914 8.21011 8.4394 8.5617 9.96478C8.89575 11.4284 10.4762 12.1485 11.851 11.6564C14.0402 11.1025 16.2288 10.5461 18.4174 9.98966C18.6826 9.92217 18.8441 9.65268 18.7782 9.38622C18.7121 9.11878 18.4422 8.95566 18.1752 9.02191C15.9873 9.56473 13.7994 10.1076 11.6121 10.653C10.7874 10.9864 9.81093 10.6581 9.58016 9.75094C9.3518 8.8074 10.2572 8.16325 11.0929 8.09432C13.5936 7.55976 16.1301 7.10263 18.6107 6.47909C18.8497 6.60432 22.5638 8.47407 22.5638 8.47407C23.5906 9.50581 22.7076 10.3723 22.2865 10.5529Z" fill="var(--fill-0, #600D11)"/>
</g>
</svg>
