<svg preserveAspectRatio="none" width="100%" height="100%" overflow="visible" style="display: block;" viewBox="0 0 23.0001 20.9987" fill="none" xmlns="http://www.w3.org/2000/svg">
<g id="Group">
<path id="Vector" d="M19.466 14.1295C20.9735 14.4765 21.6835 14.728 22.2 14.179C23.16 13.174 21.51 10.9095 21.51 7.49951C21.51 4.08951 23.16 1.82451 22.2 0.820014C21.24 -0.195486 19.62 1.53001 13.5 1.53001C7.38001 1.53001 5.76001 -0.195486 4.80001 0.820014C3.84001 1.82401 5.49001 4.08901 5.49001 7.49901C5.49001 8.11751 5.43551 8.69801 5.35251 9.24001" stroke="var(--stroke-0, #494846)" stroke-miterlimit="10"/>
<path id="Vector_2" d="M1.01351 15.4984C1.01351 13.0794 -0.0554927 11.4739 0.891007 10.7599C1.84401 10.0414 3.44451 11.0304 9.50001 11.0304C15.5555 11.0304 17.1565 10.0409 18.109 10.7599C19.0555 11.4739 17.9865 13.0794 17.9865 15.4984C17.9865 17.9174 19.0555 19.5229 18.109 20.2369C17.1565 20.9559 15.556 19.9664 9.50001 19.9664C3.44401 19.9664 1.84401 20.9554 0.891007 20.2369C-0.0549927 19.5229 1.01351 17.9174 1.01351 15.4984Z" stroke="var(--stroke-0, #494846)" stroke-miterlimit="10"/>
</g>
</svg>
