<svg preserveAspectRatio="none" width="100%" height="100%" overflow="visible" style="display: block;" viewBox="0 0 18.0006 20.6727" fill="none" xmlns="http://www.w3.org/2000/svg">
<g id="Group">
<path id="Vector" d="M17.912 6.10803L14.0225 2.21856C13.9042 2.1003 13.7125 2.1003 13.5942 2.21856C13.476 2.33683 13.476 2.52857 13.5942 2.6468L16.9667 6.01932H13.405C12.62 6.01932 11.9813 5.38085 11.9813 4.59605V1.03388L12.5961 1.64869C12.7144 1.76695 12.9061 1.76695 13.0244 1.64869C13.1427 1.53043 13.1427 1.33868 13.0244 1.22046L11.8926 0.088707C11.8358 0.0318974 11.7588 0 11.6785 0H2.02932C0.910368 0 0 0.910327 0 2.02932V8.81377C0 8.98101 0.135584 9.1166 0.302823 9.1166C0.470063 9.1166 0.605647 8.98101 0.605647 8.81377V2.02932C0.605647 1.24428 1.24432 0.605647 2.02932 0.605647H11.3757V4.59605C11.3757 5.7148 12.286 6.62497 13.405 6.62497H17.395V18.6434C17.395 19.4284 16.7563 20.0671 15.9713 20.0671H2.02932C1.24432 20.0671 0.605647 19.4285 0.605647 18.6434V10.2253C0.605647 10.0581 0.470063 9.92251 0.302823 9.92251C0.135584 9.92251 0 10.0581 0 10.2253V18.6434C0 19.7624 0.910327 20.6727 2.02932 20.6727H15.9713C17.0903 20.6727 18.0006 19.7624 18.0006 18.6434V6.32214C18.0006 6.24183 17.9687 6.1648 17.912 6.10803Z" fill="var(--fill-0, #494846)"/>
<path id="Vector_2" d="M5.43568 1.29963C5.31741 1.18137 5.12567 1.18137 5.00744 1.29963L2.92362 3.3835L1.72787 2.18779C1.6096 2.06953 1.41786 2.06953 1.29963 2.18779C1.18137 2.30606 1.18137 2.49781 1.29963 2.61603L2.4953 3.81174L1.29967 5.00736C1.18141 5.12563 1.18141 5.31737 1.29967 5.43559C1.35879 5.49471 1.43631 5.5243 1.51379 5.5243C1.59127 5.5243 1.6688 5.49475 1.72791 5.43559L2.92353 4.23997L5.54397 6.8604L2.92353 9.48071L1.72787 8.28504C1.6096 8.16674 1.41786 8.16678 1.29963 8.28504C1.18137 8.4033 1.18137 8.59505 1.29963 8.71327L2.4953 9.90898L1.29967 11.1046C1.18141 11.2228 1.18141 11.4145 1.29967 11.5328C1.35879 11.592 1.43627 11.6215 1.51379 11.6215C1.59127 11.6215 1.6688 11.592 1.72791 11.5328L2.92353 10.3372L5.54384 12.9575L2.92349 15.5779L1.72791 14.3822C1.60964 14.2639 1.4179 14.264 1.29967 14.3822C1.18141 14.5005 1.18141 14.6923 1.29967 14.8105L2.4953 16.0062L1.29972 17.2018C1.18145 17.3201 1.18145 17.5118 1.29972 17.63C1.35883 17.6892 1.43635 17.7188 1.51383 17.7188C1.59131 17.7188 1.66884 17.6892 1.72795 17.63L2.92353 16.4345L5.08735 18.5983C5.14646 18.6574 5.22398 18.687 5.30146 18.687C5.37895 18.687 5.45647 18.6574 5.51558 18.5983C5.63384 18.48 5.63384 18.2883 5.51558 18.17L3.35177 16.0062L5.97212 13.3859L8.59267 16.0064L6.50234 18.0968C6.38408 18.215 6.38408 18.4068 6.50234 18.525C6.56145 18.5841 6.63897 18.6137 6.71646 18.6137C6.79394 18.6137 6.87146 18.5841 6.93057 18.525L9.0209 16.4347L11.1862 18.5999C11.2453 18.6591 11.3228 18.6886 11.4003 18.6886C11.4778 18.6886 11.5553 18.6591 11.6145 18.5999C11.7327 18.4817 11.7327 18.2899 11.6145 18.1717L9.44922 16.0064L12.0696 13.386L13.0181 14.3345C13.0772 14.3936 13.1548 14.4232 13.2322 14.4232C13.3097 14.4232 13.3873 14.3937 13.4464 14.3345C13.5647 14.2163 13.5647 14.0245 13.4464 13.9063L12.4979 12.9578L15.1182 10.3375L16.272 11.4913C16.3311 11.5504 16.4087 11.58 16.4861 11.58C16.5636 11.58 16.6411 11.5504 16.7003 11.4913C16.8186 11.373 16.8186 11.1813 16.7003 11.0631L15.5465 9.90922L16.7003 8.75539C16.8186 8.63712 16.8186 8.44538 16.7003 8.32715C16.582 8.20889 16.3903 8.20889 16.272 8.32715L15.1182 9.48095L12.8347 7.19742C12.7164 7.07916 12.5247 7.07916 12.4064 7.19742C12.2882 7.31568 12.2882 7.50743 12.4064 7.62565L14.69 9.90918L12.0697 12.5295L9.44917 9.90894L11.8924 7.46576C12.0106 7.3475 12.0106 7.15575 11.8924 7.03753C11.774 6.91931 11.5823 6.91923 11.4641 7.03753L9.0209 9.48071L6.40063 6.86048L9.02098 4.24021L10.4262 5.64547C10.4854 5.70458 10.5629 5.73418 10.6404 5.73418C10.7178 5.73418 10.7954 5.70462 10.8545 5.64547C10.9728 5.52721 10.9728 5.33546 10.8545 5.21724L9.44925 3.81198L11.014 2.24735C11.1323 2.12909 11.1323 1.93738 11.014 1.81912C10.8957 1.70086 10.704 1.70086 10.5858 1.81912L9.02094 3.38366L6.93687 1.29963C6.81861 1.18137 6.62686 1.18137 6.50864 1.29963C6.39038 1.4179 6.39038 1.60964 6.50864 1.72787L8.59267 3.81194L5.97228 6.43221L3.35181 3.81174L5.43564 1.72787C5.55394 1.6096 5.55394 1.41786 5.43568 1.29963ZM11.6413 12.9578L9.02094 15.5782L6.40039 12.9576L9.02078 10.3372L11.6413 12.9578ZM8.59251 9.90894L5.97212 12.5293L3.35181 9.90902L5.97224 7.28871L8.59251 9.90894Z" fill="var(--fill-0, #494846)"/>
<path id="Vector_3" d="M12.5262 18.5966C12.5853 18.6557 12.6629 18.6853 12.7403 18.6853C12.8178 18.6853 12.8953 18.6558 12.9545 18.5966L15.1182 16.433L16.2719 17.5868C16.3311 17.6459 16.4086 17.6755 16.4861 17.6755C16.5636 17.6755 16.6411 17.6459 16.7003 17.5868C16.8185 17.4685 16.8185 17.2768 16.7003 17.1585L15.5464 16.0047L16.7002 14.8509C16.8185 14.7327 16.8185 14.5409 16.7002 14.4227C16.5819 14.3044 16.3902 14.3044 16.2719 14.4227L15.1182 15.5764L14.4448 14.9031C14.3265 14.7848 14.1348 14.7848 14.0166 14.9031C13.8983 15.0213 13.8983 15.2131 14.0166 15.3313L14.6899 16.0047L12.5263 18.1683C12.4079 18.2866 12.4079 18.4784 12.5262 18.5966Z" fill="var(--fill-0, #494846)"/>
</g>
</svg>
