<svg preserveAspectRatio="none" width="100%" height="100%" overflow="visible" style="display: block;" viewBox="0 0 24 20.156" fill="none" xmlns="http://www.w3.org/2000/svg">
<g id="Group">
<path id="Vector" d="M23.1781 1.33298H20.1368C19.9253 0.564188 19.2139 0 18.3927 0H6.32039C5.48775 0 4.78514 0.565781 4.5758 1.33298H0.821906C0.368719 1.33298 0 1.7017 0 2.15494V2.92692C0 3.38011 0.368719 3.74883 0.821906 3.74883H4.51186V12.0781C4.51186 12.2727 4.66955 12.4304 4.86412 12.4304C5.0587 12.4304 5.21639 12.7914 5.21639 12.0781V1.80853C5.21639 1.19981 5.71163 0.704531 6.32039 0.704531H16.9612C16.725 1.01016 16.5842 1.39327 16.5842 1.80853V14.5624H5.21639V11.7739C5.21639 11.5793 5.05866 11.4216 4.86412 11.4216C4.66959 11.4216 4.51186 11.5793 4.51186 11.7739V19.0993C4.51186 19.682 4.98591 20.156 5.56861 20.156H16.2319C16.8146 20.156 17.2887 19.682 17.2887 19.0993V13.9686H19.1445C19.7272 13.9686 20.2012 13.4945 20.2012 12.9118V6.74494C20.2012 6.55041 20.0435 6.39267 19.8489 6.39267C19.6544 6.39267 19.4967 6.55036 19.4967 6.74494V12.9118C19.4967 13.1061 19.3387 13.2641 19.1444 13.2641H17.2886V3.74883H19.4967V8.07812C19.4967 8.27266 19.6544 8.43039 19.8489 8.43039C20.0435 8.43039 20.2012 8.2727 20.2012 8.07812V3.74883H23.178C23.6312 3.74883 24 3.38011 24 2.92692V2.15494C24 1.7017 23.6313 1.33298 23.1781 1.33298ZM0.821906 3.04434C0.757172 3.04434 0.704484 2.99166 0.704484 2.92692V2.15494C0.704484 2.0902 0.757172 2.03752 0.821906 2.03752H4.51186V3.04434H0.821906ZM18.3927 0.704531C18.8253 0.704531 19.2076 0.961219 19.3873 1.33303H17.3965C17.5745 0.961641 17.9542 0.704531 18.3927 0.704531ZM16.232 19.4515H5.56866C5.37445 19.4515 5.21639 19.2935 5.21639 19.0993V17.5853H12.5245C12.719 17.5853 12.8768 17.4276 12.8768 17.2331C12.8768 17.0385 12.719 16.8808 12.5245 16.8808H5.21639V15.2669H16.5842V16.8808H11.5C11.3055 16.8808 11.1477 17.0385 11.1477 17.2331C11.1477 17.4276 11.3055 17.5853 11.5 17.5853H16.5842V19.0993C16.5842 19.2935 16.4262 19.4515 16.232 19.4515ZM23.2955 2.92692C23.2955 2.99166 23.2428 3.04434 23.1781 3.04434H17.2887V2.03752H23.1781C23.2428 2.03752 23.2955 2.0902 23.2955 2.15494V2.92692Z" fill="var(--fill-0, black)"/>
</g>
</svg>
